<?xml version="1.0" encoding="utf-8"?>
<svg version="1.1" id="Layer_1"
	xmlns="http://www.w3.org/2000/svg"
	xmlns:xlink="http://www.w3.org/1999/xlink" x="0px" y="0px" viewBox="0 0 216.32 173.89" style="enable-background:new 0 0 216.32 173.89;" xml:space="preserve">
	<style type="text/css">
	.st0{fill:#0870C6;}
	</style>
	<g>
		<path class="st0" d="M117.99,23.24c9.89-3.55,20.81,6.76,17.8,16.95c-9.27,37.94-18.74,75.85-28.17,113.76
		c-1.52,7.35-9.33,12.59-16.65,10.85c-7.61-1.37-12.97-9.83-10.78-17.36c9.13-37.53,18.56-74.99,27.82-112.49
		C108.97,29.59,112.7,24.72,117.99,23.24z"/>
		<path class="st0" d="M40.13,42.53c4.46-6.1,13.79-7.55,19.71-2.82c6.3,4.44,7.56,14.25,2.62,20.19
		c-9.15,11.45-18.69,22.6-27.98,33.95c9.26,11.36,18.78,22.49,27.92,33.93c5.06,5.92,3.7,15.82-2.62,20.28
		c-5.98,4.71-15.27,3.18-19.71-2.94C28.5,131.2,17,117.23,5.5,103.28c-4.69-5.17-4.71-13.66,0-18.82
		C16.98,70.43,28.56,56.48,40.13,42.53z"/>
		<path class="st0" d="M154.08,41.56c5.15-6.14,15.52-6.23,20.76-0.12c11.2,13.13,22,26.62,33.11,39.83
		c3.03,3.59,6.32,7.62,6.05,12.67c0.19,4.5-2.53,8.31-5.27,11.58c-11.06,13.27-22,26.65-33.07,39.89c-4.3,5.55-12.72,7.21-18.6,3.26
		c-6.83-4.05-8.87-14.29-3.77-20.51c9.2-11.58,18.86-22.78,28.15-34.29c-9.06-11.17-18.37-22.14-27.45-33.3
		C149.28,55.35,149.21,46.7,154.08,41.56z"/>
	</g>
</svg>