<?xml version="1.0" encoding="utf-8"?>
<svg version="1.1" id="Layer_1"
    xmlns="http://www.w3.org/2000/svg"
    xmlns:xlink="http://www.w3.org/1999/xlink" x="0px" y="0px" viewBox="0 0 706 706" enable-background="new 0 0 706 706" xml:space="preserve">
    <path fill="#FF3232" d="M288.7,150.2c27.1-10.8,58.4-10.7,85.4,0.4c42.3,16.7,72.5,60.9,70.8,106.6c0.5,11.8-3,23.4-8,33.9
	c-7.2,14.7-17.5,27.7-28.8,39.3c-1.2,1.3-2.3,2.7-3.3,4.2c19,17.2,34.8,38.6,43.4,62.9c7.7,21.3,6.6,44.9,0.2,66.3
	c-11.8,40.3-45.4,73.1-85.9,84.3c-25.5,7.3-53.3,6-78-3.6c-23.7-9.1-44.4-25.7-58.6-46.8c-14.8-21.6-22.5-48.1-21.4-74.3
	c1.2-21.9,10.8-42.5,23.6-60.1c7.9-10.8,17.1-20.6,27.3-29.2c-17.6-19.7-34.9-42.1-38.3-69.1c-2.1-20.8,2.5-42.1,12-60.7
	C241.5,179.9,263.1,160.2,288.7,150.2z M327.5,214.4c-12.9,4-20.1,17.3-23.2,29.6c-3.9,16.6-2.2,35.2,7.1,49.8
	c4.9,7.5,13,14.2,22.4,13.8c8.9-0.3,16.3-6.7,20.9-13.9c7.9-12.3,10-27.6,8.4-41.9c-1.5-11.6-5.8-23.4-14.5-31.5
	C343,215.1,334.9,212.2,327.5,214.4z M326.4,380.1c-9.1,2.8-16,10.3-20.4,18.5c-7.2,13.7-9.1,29.8-7,45c1.8,12.7,6.9,25.6,16.7,34.3
	c7.5,6.6,18.7,9.8,28.2,5.7c10.5-4.5,17.3-14.7,20.7-25.3c4-11.6,3.5-24.1,2.5-36.2c-1.4-12.2-5.3-24.7-13.8-33.8
	C346.6,381.1,336,377.2,326.4,380.1z"/>
    <path fill="#FF3232" d="M118.6,146.2c19.7,0,39.5,0,59.2,0c0.4,106.7,1.1,213.4,1.6,320.1c0,2.9-0.8,5.7-1.1,8.6l2.4,0.1
	c-3.3,1.4-2.5,5.9-1,8.3c-0.4,1.1-1.2,3.4-1.6,4.5l1.5,0.1c-0.1,18.9,0.2,37.8,0.2,56.7c-20.2,0-40.3,0-60.5,0
	c-7.6-0.9-15.3-0.8-22.9-0.4c-0.5-33.7,0.4-67.5,0.4-101.2c0.4-57.4,0.9-114.8,1.3-172.2c-25.1,21.9-50.4,43.6-75.6,65.4
	c-2.7-29.2-5.5-58.4-8.1-87.7c9.9-6.9,18.6-15.3,27.7-23.2c23.2-20,44.3-42.3,64.7-65.1C110.8,155.7,114.9,151.2,118.6,146.2z"/>
    <path fill="#FF3232" d="M541.3,205.5c24.5,0,49.1,0,73.6,0c-0.1,34,0,68.1-0.1,102.1c25.2,0,50.4,0.1,75.6,0c0,27.3-0.1,54.5,0,81.8
	c-25.2,0-50.4,0-75.6,0c0,34.1,0,68.1,0,102.2c-24.5,0-49.1,0-73.6,0c0-34.1,0-68.1,0-102.2c-25.2,0.1-50.4,0-75.6,0
	c0-27.2,0-54.5,0-81.8c25.2,0.1,50.4,0,75.6,0C541.3,273.6,541.3,239.5,541.3,205.5z"/>
</svg>
