<?xml version="1.0" encoding="utf-8"?>
<svg version="1.2" baseProfile="tiny" id="Layer_1"
    xmlns="http://www.w3.org/2000/svg"
    xmlns:xlink="http://www.w3.org/1999/xlink" x="0px" y="0px" viewBox="0 0 327 333" xml:space="preserve">
    <path fill="#EA4335" d="M32.7,52.7c14-20.4,38-33.7,62.8-34.2c11.7,0,23.3,0,35,0c0,13.3,0,26.7,0,40c-10.7,0.1-21.4-0.1-32.1,0.1
	c-10.4,0.1-20.8,4.3-28,11.8c-7.5,7.2-11.7,17.6-11.8,28c-0.3,10.7,0,21.4-0.1,32.1c-13.3,0-26.7,0-40,0c0-10.3,0-20.7,0-31.1
	C18,82.9,23.2,66.3,32.7,52.7z"/>
    <path fill="#FBBC04" d="M194.5,18.5c12,0,24,0,36,0c18.2,0.7,36.1,8.1,49.6,20.3c15.8,14,25.6,34.6,26.4,55.7c0,12,0,24,0,36
	c-13.3,0-26.7,0-40,0c0-9.3,0-18.6,0-27.9c-0.1-4.9-0.2-9.9-1.6-14.7c-3.5-12.8-13.8-23.4-26.4-27.4c-5.5-1.9-11.3-2-17-2
	c-9,0-18,0-27,0C194.5,45.2,194.5,31.8,194.5,18.5z"/>
    <path fill="#4285F4" d="M153.9,107c11.2-1.5,22.9-0.1,33.1,5c16,7.6,27.8,23.2,30.7,40.6c1.9,11.6,0.5,23.9-4.8,34.4
	c-7.6,16-23.2,27.8-40.6,30.7c-11.6,1.9-23.9,0.5-34.4-4.8c-16-7.6-27.8-23.2-30.8-40.7c-1.9-11.9-0.4-24.4,5.2-35.1
	C120.2,121.2,136.3,109.6,153.9,107z"/>
    <path fill="#4285F4" d="M18.5,194.5c13.3,0,26.7,0,40,0c0,9,0,18,0,27c0,6.2,0.3,12.5,2.5,18.4c5.2,14.8,19.8,25.8,35.5,26.4
	c11.3,0.5,22.7,0.1,34,0.2c0,13.3,0,26.7,0,40c-10.3,0-20.7,0-31,0c-20.4,0.6-40.8-7.5-55.6-21.4c-15.1-14-24.5-34-25.3-54.6
	C18.5,218.5,18.5,206.5,18.5,194.5z"/>
    <path fill="#34A853" d="M251,227.2c14.5-3.7,30.9,4.2,36.8,18c6,13.2,2,30.2-9.7,38.8c-12.2,9.7-31.5,8.5-42.3-2.8
	c-11.3-10.8-12.5-30.1-2.8-42.3C237.4,233.1,243.9,228.9,251,227.2z"/>
</svg>
