<?xml version="1.0" encoding="utf-8"?>
<svg version="1.2" baseProfile="tiny" id="Layer_1"
    xmlns="http://www.w3.org/2000/svg"
    xmlns:xlink="http://www.w3.org/1999/xlink" x="0px" y="0px" viewBox="0 0 457 457" xml:space="preserve">
    <path fill="#37474F" d="M320.7,347.9c10-10.1,20-20.2,30.2-30.1c1.6,0.8,2.6,2.3,3.9,3.5c29.5,29.3,58.7,58.9,88.3,88.1
	c0,0.3-0.1,0.9-0.1,1.2c-9.8,9.8-19.6,19.6-29.4,29.3c-0.3,0-0.9,0.1-1.1,0.1c-26.7-27.1-53.8-53.8-80.6-80.8
	C328.1,355.4,324.1,352,320.7,347.9z"/>
    <path fill="#64B5F6" d="M171.5,46.7c38.4-4.5,78.4,7.7,107.3,33.5c16.8,14.5,29.9,33.3,37.9,54c15.4,39.1,11.7,85.3-10.2,121.2
	c-20,34.1-55.5,58.7-94.4,65.5c-24.7,4.4-50.7,2.1-74.1-6.9c-41.4-15.4-74.2-52-84.8-94.9c-10.6-40-1.9-84.7,23.3-117.6
	C98.8,71.1,134.1,50.9,171.5,46.7z M174.3,89.4c-21.7,3-42.3,13.6-57.2,29.7c-2.6,2.8-6.1,5.7-6,9.9c-0.6,6.7,6.4,12.8,12.9,11.1
	c4-0.7,6.4-4.3,9.1-6.9c15.7-16.6,39.2-25.4,61.9-22.8c18.4,1.7,35.8,10.8,48.2,24.4c3.2,3.6,8,7.3,13.1,5.6
	c7.2-1.6,8.7-11.4,5.2-16.9C241,97.9,206.6,84.7,174.3,89.4z"/>
    <path fill="#BBDEFB" d="M174.3,89.4c32.4-4.7,66.7,8.5,87.2,34c3.5,5.6,2,15.3-5.2,16.9c-5.1,1.6-9.9-2.1-13.1-5.6
	c-12.4-13.6-29.8-22.8-48.2-24.4c-22.7-2.5-46.2,6.3-61.9,22.8c-2.7,2.6-5.1,6.2-9.1,6.9c-6.6,1.7-13.5-4.4-12.9-11.1
	c-0.1-4.2,3.4-7.1,6-9.9C132,103,152.6,92.4,174.3,89.4z"/>
    <path fill="#616161" d="M117.8,28.8c40.8-18.7,89.1-19.8,130.9-3.6c23.6,9.4,45.4,23.7,62.8,42.3c15.1,15.9,26.9,34.8,35,55.1
	c16.3,41.7,15.4,89.9-3,130.8c-5.7,12.5-12.5,24.5-21.2,35.2c9.5,9.7,19.1,19.4,28.9,28.8l-0.3,0.3c-10.2,9.9-20.2,20-30.2,30.1
	l-0.3,0.2c-9.5-9.8-19.1-19.4-28.8-28.8C270.8,335.7,246,346.9,220,352c-25.1,4.7-51.2,4-75.9-2.5c-31.5-8.4-60.7-25.8-82.5-50.1
	c-14-14.9-24.6-32.6-32.6-51.4c-17.6-43.5-16.3-94.5,4.4-136.7C50.5,74.9,81.1,45.1,117.8,28.8z M171.5,46.7
	c-37.4,4.2-72.7,24.5-95,54.8c-25.2,32.9-33.8,77.6-23.3,117.6C63.8,262,96.6,298.6,138,314c23.4,9.1,49.4,11.3,74.1,6.9
	c38.9-6.8,74.4-31.3,94.4-65.5c21.9-35.9,25.6-82.1,10.2-121.2c-8-20.7-21.1-39.5-37.9-54C249.9,54.4,209.8,42.2,171.5,46.7z"/>
</svg>
