<?xml version="1.0" encoding="UTF-8" ?>
<svg width="800pt" height="800pt" viewBox="0 0 800 800" version="1.1"
    xmlns="http://www.w3.org/2000/svg">
    <path fill="#333333" opacity="1.00" d=" M 335.01 57.02 C 338.55 44.37 350.88 34.80 364.05 34.69 C 388.02 34.66 411.98 34.64 435.94 34.70 C 448.62 34.78 460.54 43.56 464.59 55.54 C 466.89 61.43 466.20 67.84 466.28 74.02 C 466.31 87.30 466.23 100.57 466.33 113.85 C 479.64 116.86 492.71 120.91 505.46 125.75 C 500.50 148.65 501.31 172.92 508.69 195.21 C 498.60 205.59 488.21 215.67 478.04 225.96 C 452.60 214.78 424.80 208.91 397.00 209.41 C 357.50 209.99 318.26 223.17 286.61 246.83 C 250.75 273.29 224.56 312.66 214.59 356.14 C 205.50 394.04 208.59 434.70 223.12 470.85 C 224.00 473.21 225.31 475.42 225.87 477.90 C 215.73 488.27 205.39 498.50 195.09 508.73 C 172.89 501.16 148.64 500.53 125.78 505.38 C 121.08 492.59 116.88 479.59 113.86 466.29 C 97.59 466.23 81.32 466.36 65.05 466.23 C 53.24 466.07 42.02 458.51 37.38 447.66 C 35.66 443.70 34.75 439.38 34.75 435.05 C 34.81 411.05 34.69 387.05 34.80 363.05 C 35.35 347.75 48.70 334.29 64.03 333.77 C 80.58 333.59 97.15 333.91 113.70 333.54 C 117.05 320.99 120.43 308.32 125.21 296.18 C 131.91 278.10 140.67 260.83 150.75 244.40 C 141.37 235.31 132.24 225.97 122.97 216.76 C 117.68 211.61 111.98 206.34 109.62 199.12 C 105.39 187.89 108.56 174.48 117.20 166.20 C 133.68 149.66 150.19 133.14 166.74 116.67 C 175.61 107.76 190.01 105.10 201.41 110.45 C 208.14 113.30 212.86 119.04 217.90 124.07 C 226.88 132.93 235.69 141.94 244.72 150.74 C 271.90 133.39 302.27 121.08 333.67 113.85 C 333.78 100.57 333.69 87.29 333.72 74.01 C 333.77 68.33 333.31 62.52 335.01 57.02 Z" />
    <path fill="#333333" opacity="1.00" d=" M 574.05 322.01 C 584.40 311.83 594.56 301.45 604.89 291.26 C 627.12 298.77 651.40 299.54 674.26 294.50 C 679.05 307.31 683.15 320.38 686.20 333.71 C 702.15 333.73 718.09 333.73 734.04 333.71 C 742.00 333.59 749.93 336.77 755.65 342.29 C 761.87 348.09 765.38 356.58 765.32 365.08 C 765.31 388.71 765.37 412.35 765.28 435.98 C 765.27 451.63 751.66 465.63 736.04 466.19 C 719.43 466.40 702.83 466.22 686.23 466.28 C 678.89 497.75 666.48 528.06 649.29 555.43 C 660.67 566.81 672.08 578.17 683.42 589.59 C 692.53 598.64 694.99 613.61 689.09 625.05 C 686.56 630.54 681.99 634.61 677.81 638.82 C 663.12 653.47 648.49 668.19 633.78 682.81 C 626.92 689.87 616.64 693.41 606.90 691.89 C 599.95 690.91 593.49 687.40 588.62 682.39 C 577.53 671.37 566.51 660.27 555.45 649.23 C 528.09 666.37 497.85 678.97 466.35 686.05 C 466.18 702.70 466.37 719.36 466.25 736.01 C 465.71 751.29 452.21 764.73 436.93 765.18 C 412.64 765.29 388.35 765.21 364.07 765.22 C 348.39 765.25 334.38 751.60 333.80 735.98 C 333.53 719.40 333.95 702.80 333.59 686.23 C 320.43 682.93 307.33 679.03 294.59 674.23 C 299.53 651.37 298.77 627.08 291.37 604.83 C 301.45 594.42 311.98 584.44 321.97 573.95 C 359.07 590.36 401.36 594.98 441.00 586.06 C 479.09 577.88 514.40 557.43 540.59 528.61 C 568.49 498.48 585.93 458.98 589.74 418.11 C 592.99 385.42 587.27 352.04 574.05 322.01 Z" />
    <path fill="#0088fe" opacity="1.00" d=" M 568.51 59.45 C 583.52 50.71 600.57 45.43 617.93 44.48 C 628.27 44.11 638.74 44.15 648.85 46.62 C 633.00 70.49 617.33 94.48 601.56 118.40 C 598.09 123.32 597.47 130.13 600.54 135.40 C 602.70 139.90 607.26 142.28 611.27 144.85 C 627.23 155.51 643.33 165.96 659.35 176.53 C 663.45 178.99 667.16 182.45 672.03 183.28 C 677.95 184.21 684.39 181.59 687.89 176.71 C 703.54 152.97 719.05 129.11 734.95 105.53 C 756.04 137.41 762.24 179.59 748.21 215.50 C 741.25 233.91 728.90 250.15 713.28 262.09 C 699.66 272.17 683.72 279.16 667.01 282.08 C 645.26 285.80 622.32 283.75 601.84 275.39 C 593.97 282.34 586.93 290.19 579.35 297.45 C 549.10 327.78 518.76 358.03 488.50 388.35 C 481.49 395.65 473.80 402.33 467.20 409.98 C 467.32 410.46 467.56 411.42 467.67 411.90 C 466.86 408.73 464.92 411.94 463.75 413.06 C 409.84 467.04 355.84 520.94 301.93 574.92 C 293.08 583.55 284.60 592.57 275.58 601.02 C 280.36 614.87 284.01 629.32 283.82 644.08 C 284.99 676.44 271.06 709.27 246.09 730.07 C 221.43 751.30 186.96 759.53 155.13 754.07 C 153.64 753.04 151.86 755.35 150.63 754.03 C 166.68 730.20 182.31 706.02 198.17 682.05 C 201.52 677.42 202.70 671.04 200.11 665.79 C 198.39 661.20 194.19 658.34 190.16 655.94 C 171.34 643.65 152.68 631.13 133.82 618.91 C 126.70 614.19 116.31 616.68 111.74 623.77 C 96.41 647.54 80.53 670.95 65.17 694.70 C 47.23 667.09 39.82 632.42 47.05 600.11 C 51.31 581.37 60.35 563.60 73.69 549.69 C 84.64 537.83 98.60 528.93 113.63 523.16 C 133.42 515.63 155.27 514.43 176.02 518.04 C 183.57 519.66 191.21 521.35 198.26 524.57 C 210.85 512.74 222.77 500.19 235.09 488.08 C 256.50 466.78 277.69 445.26 299.23 424.10 C 374.02 348.89 449.27 274.09 524.15 198.95 L 524.36 198.03 C 512.55 167.39 513.04 131.52 528.33 102.16 C 537.23 84.43 551.50 69.58 568.51 59.45 Z" />
</svg>
