<?xml version="1.0" encoding="utf-8"?>
<svg version="1.1" id="Layer_1"
    xmlns="http://www.w3.org/2000/svg"
    xmlns:xlink="http://www.w3.org/1999/xlink" x="0px" y="0px" viewBox="0 0 256 256" enable-background="new 0 0 256 256" xml:space="preserve">
    <g>
        <path fill="#FFA500" d="M0.6,20.9C-0.2,13,7,5,15.1,5.5c12.4-0.1,25.4,2.4,35.5,10c8.6,6.4,14.7,15.9,17,26.4
		c7.7,34.6,14,69.6,21.6,104.2c1.6,8.1,8.9,14.5,17,15.6c6.6,0.9,13.2,0.8,19.8,0.9c20.8,0,41.6,0.1,62.3,0
		c12.6-16.4,21.8-35,31.2-53.2c3.5-6.7,6.5-13.7,10.8-20c5.8-8.3,20.6-6.3,24.1,3.1c2.5,5.8,0.6,12.3-2.4,17.6
		c-9.7,19.6-19.6,39.2-31.4,57.7c-4.1,6.1-8.3,12.2-13.6,17.4c-3.4,3.2-7.5,6-12.3,6.4c-11.6,0.9-23.2,0.5-34.8,0.6
		c-16.7-0.1-33.4,0.3-50.1-0.4c-9.9-0.2-20-2.9-28.3-8.5c-11-7-18.9-18.5-21.7-31.2C52.7,117.8,46.4,83.2,38.8,49
		c-1-5.9-5.6-10.7-11.3-12.3c-6.4-2.7-14-0.5-20-4.3C3.5,30,0.7,25.7,0.6,20.9z"/>
        <path fill="#FFA500" d="M134,18.8c8.4-4.4,18.9-4.2,27.5-0.2c1.8,0.7,2.8,2.5,2.9,4.4c1.5,13.8,2.1,27.6,3,41.4
		c7.5,0.1,15,0,22.5,0.4c4.1,0,6.1,5.8,3.5,8.7c-10.7,15.7-23.6,29.7-36.8,43.1c-2.1,2-4,4.4-6.6,6c-2.1,0.5-4.5,0.1-5.9-1.5
		c-15-14.5-29.1-29.9-41.2-46.9c-2-2.3-2.1-6.1,0.2-8.3c2-1.2,4.4-1.2,6.7-1.4c6.3-0.2,12.6-0.1,18.9-0.1
		c0.9-13.1,1.2-26.2,2.6-39.3C131.5,22.8,131.6,19.9,134,18.8z"/>
        <path fill="#FFA500" d="M98.4,202.7c5.4-0.7,11.2-0.6,16.1,2.1c8.6,4.3,14,13.9,13.5,23.4c-0.7,10.6-8.9,20-19.2,22.4
		c-9.7,2.3-20.4-2.3-25.7-10.6c-4.5-6.9-5.1-16-1.7-23.5C84.6,209.5,91.1,204.3,98.4,202.7z"/>
        <path fill="#FFA500" d="M186.4,202.8c5.4-0.9,11.2-0.8,16.2,1.8c10.1,4.6,16.1,16.8,13.3,27.6c-2.4,10.8-12.8,19.2-23.9,18.9
		c-13.2,0.3-25-11.9-24.3-25.1C167.9,215.1,176,205.3,186.4,202.8z"/>
    </g>
</svg>